<svg width="387" height="21" viewBox="0 0 387 21" fill="none" xmlns="http://www.w3.org/2000/svg">
<path d="M0.5 10.5H173.5" stroke="#13181F"/>
<path d="M186.644 5.81818L189.294 13.8324H189.398L192.043 5.81818H194.071L190.482 16H188.205L184.62 5.81818H186.644ZM200.946 8.61719C200.899 8.183 200.704 7.84493 200.359 7.60298C200.018 7.36103 199.574 7.24006 199.027 7.24006C198.642 7.24006 198.313 7.29806 198.037 7.41406C197.762 7.53007 197.552 7.6875 197.406 7.88636C197.26 8.08523 197.186 8.31226 197.182 8.56747C197.182 8.77959 197.23 8.96354 197.327 9.11932C197.426 9.27509 197.56 9.40767 197.729 9.51705C197.898 9.62311 198.086 9.71259 198.291 9.78551C198.497 9.85843 198.704 9.91974 198.912 9.96946L199.867 10.2081C200.251 10.2976 200.621 10.4186 200.976 10.571C201.334 10.7235 201.653 10.9157 201.935 11.1477C202.22 11.3797 202.446 11.6598 202.611 11.9879C202.777 12.3161 202.86 12.7005 202.86 13.1413C202.86 13.7379 202.707 14.2633 202.403 14.7173C202.098 15.1681 201.657 15.5211 201.08 15.7763C200.507 16.0282 199.812 16.1541 198.997 16.1541C198.205 16.1541 197.517 16.0315 196.934 15.7862C196.354 15.541 195.9 15.183 195.572 14.7124C195.247 14.2417 195.071 13.6683 195.045 12.9922H196.859C196.886 13.3468 196.995 13.6418 197.187 13.8771C197.38 14.1125 197.63 14.2881 197.938 14.4041C198.25 14.5201 198.598 14.5781 198.982 14.5781C199.383 14.5781 199.734 14.5185 200.036 14.3991C200.341 14.2765 200.58 14.1075 200.752 13.892C200.924 13.6733 201.012 13.4181 201.015 13.1264C201.012 12.8613 200.934 12.6425 200.782 12.4702C200.629 12.2945 200.416 12.1487 200.14 12.0327C199.869 11.9134 199.55 11.8073 199.186 11.7145L198.028 11.4162C197.189 11.2008 196.526 10.8743 196.039 10.4368C195.555 9.99598 195.313 9.41098 195.313 8.68182C195.313 8.08191 195.475 7.55658 195.8 7.10582C196.128 6.65507 196.574 6.3054 197.138 6.05682C197.701 5.80492 198.339 5.67898 199.052 5.67898C199.774 5.67898 200.407 5.80492 200.951 6.05682C201.498 6.3054 201.927 6.65175 202.238 7.09588C202.55 7.53669 202.711 8.0438 202.721 8.61719H200.946Z" fill="#313A47"/>
<path d="M213.5 10.5H386.5" stroke="#13181F"/>
</svg>
